# xmcd
#
# Track frame offsets:
#	150
#	15894
#	33211
#	51395
#	67833
#	83144
#	101118
#	119737
#	137951
#	155288
#	172124
#	189000
#	213173
#	237006
#	252740
#	273613
#	291979
#
# Disc length: 4111 seconds
#
# Revision: 1
# Processed by: cddbd v1.5.2PL0 Copyright (c) Steve Scherf et al.
# Submitted via: audiograbber 1.83.01
#
DISCID=f2100d11
DTITLE=JonesTM - HC200802
DYEAR=2008
DGENRE=Country
TTITLE0=Keith Anderson - I Still Miss You
TTITLE1=Clay Walker - She Likes It In The Morning
TTITLE2=Sara Evans - Some Things Never Change
TTITLE3=Phil Stacey - If You Didn't Love Me [Album Version]
TTITLE4=Jason Michael Carroll - I Can Sleep When I'm Dead
TTITLE5=Lyfe Jennings - Never Never Land
TTITLE6=Vanessa Bell Armstrong - It's Over Now
TTITLE7=Keith Sweat Feat. Paisley Bettis - Suga Suga Suga
TTITLE8=Taylor Dayne - Beautiful
TTITLE9=Tamia - Almost
TTITLE10=Cynthia Layne - Be You [Album Version]
TTITLE11=Rick Braun and Richard Elliot - Better Times [Album Version]
TTITLE12=Brian Hughes - While The World Slowly Turns [Radio Edit]
TTITLE13=Mark Carter - Walking In Rhythm [Album Version]
TTITLE14=Jessy J - Tequila Moon [Album Version]
TTITLE15=Nils - Dreamin' [Extended Single]
TTITLE16=Nils - Dreamin' [Radio Edit]
EXTD=
EXTT0=
EXTT1=
EXTT2=
EXTT3=
EXTT4=
EXTT5=
EXTT6=
EXTT7=
EXTT8=
EXTT9=
EXTT10=
EXTT11=
EXTT12=
EXTT13=
EXTT14=
EXTT15=
EXTT16=
PLAYORDER=
